<svg preserveAspectRatio="none" overflow="visible" style="display: block;" width="1280" height="216.421" viewBox="0 0 1280 216.421" fill="none" xmlns="http://www.w3.org/2000/svg">
<g id="Namskar">
<path d="M0 213.543V12.0873H54.4702L154.426 134.687H129.156V12.0873H193.734V213.543H139.264L39.3084 90.9427H64.5781V213.543H0Z" fill="url(#paint0_linear_0_57)"/>
<path d="M307.081 213.543V185.627L302.588 178.144V125.19C302.588 117.516 300.249 111.664 295.569 107.635C291.077 103.606 283.683 101.591 273.388 101.591C266.462 101.591 259.443 102.742 252.33 105.045C245.217 107.155 239.133 110.129 234.08 113.966L213.864 71.085C222.849 65.3291 233.612 60.9163 246.153 57.8465C258.694 54.7767 270.955 53.2418 282.934 53.2418C309.327 53.2418 329.73 59.2855 344.143 71.3728C358.743 83.4601 366.043 102.646 366.043 128.932V213.543H307.081ZM263.561 216.421C251.02 216.421 240.537 214.214 232.114 209.801C223.691 205.389 217.327 199.537 213.021 192.246C208.716 184.763 206.564 176.513 206.564 167.496C206.564 157.327 209.091 148.693 214.145 141.594C219.199 134.496 226.873 129.123 237.168 125.478C247.65 121.833 260.847 120.01 276.757 120.01H308.765V151.379H286.865C280.126 151.379 275.166 152.531 271.984 154.833C268.989 156.943 267.492 160.205 267.492 164.618C267.492 168.263 268.802 171.333 271.423 173.827C274.23 176.13 277.974 177.281 282.653 177.281C286.959 177.281 290.89 176.13 294.446 173.827C298.19 171.333 300.904 167.496 302.588 162.316L310.731 181.598C308.298 193.301 303.15 202.031 295.288 207.787C287.427 213.543 276.851 216.421 263.561 216.421Z" fill="url(#paint1_linear_0_57)"/>
<path d="M383.916 213.543V56.1197H444.282V101.303L431.928 88.6404C437.731 76.7449 445.499 67.9193 455.232 62.1634C464.966 56.2157 475.823 53.2418 487.802 53.2418C501.279 53.2418 513.166 56.8872 523.461 64.1779C533.943 71.2769 540.962 82.5967 544.519 98.1376L525.145 94.9719C530.761 81.9252 538.903 71.7565 549.573 64.4658C560.429 56.9831 572.97 53.2418 587.196 53.2418C598.802 53.2418 609.19 55.736 618.362 60.7244C627.721 65.521 635.022 73.0995 640.263 83.4601C645.691 93.8207 648.405 107.251 648.405 123.751V213.543H584.95V134.975C584.95 125.19 583.359 118.283 580.177 114.254C576.995 110.033 572.877 107.923 567.823 107.923C564.079 107.923 560.71 108.882 557.715 110.801C554.72 112.719 552.287 115.789 550.415 120.01C548.73 124.039 547.888 129.603 547.888 136.702V213.543H484.433V134.975C484.433 125.19 482.936 118.283 479.941 114.254C476.946 110.033 472.734 107.923 467.306 107.923C463.562 107.923 460.193 108.882 457.198 110.801C454.203 112.719 451.77 115.789 449.898 120.01C448.213 124.039 447.371 129.603 447.371 136.702V213.543H383.916Z" fill="url(#paint2_linear_0_57)"/>
<path d="M726.466 216.421C713.364 216.421 700.448 214.982 687.72 212.104C674.991 209.226 664.696 205.485 656.834 200.88L674.242 157.999C681.543 162.411 689.966 165.865 699.512 168.359C709.246 170.853 718.698 172.101 727.87 172.101C735.545 172.101 740.692 171.429 743.313 170.086C746.121 168.743 747.524 166.92 747.524 164.618C747.524 162.316 745.933 160.685 742.751 159.725C739.569 158.574 735.358 157.711 730.116 157.135C724.875 156.56 719.073 155.888 712.708 155.121C706.531 154.161 700.261 152.818 693.897 151.092C687.532 149.365 681.73 146.775 676.489 143.321C671.247 139.868 667.036 135.263 663.854 129.507C660.672 123.559 659.081 116.077 659.081 107.059C659.081 97.0823 661.982 88.0648 667.785 80.0066C673.774 71.9484 682.572 65.521 694.177 60.7244C705.97 55.736 720.476 53.2418 737.697 53.2418C748.928 53.2418 760.159 54.297 771.39 56.4075C782.621 58.518 792.261 61.7797 800.31 66.1925L782.902 109.074C775.04 104.661 767.272 101.687 759.598 100.152C752.11 98.4254 745.091 97.562 738.54 97.562C730.491 97.562 724.969 98.3295 721.974 99.8644C719.166 101.399 717.762 103.126 717.762 105.045C717.762 107.347 719.353 109.074 722.536 110.225C725.718 111.376 729.929 112.239 735.17 112.815C740.412 113.391 746.121 114.158 752.298 115.117C758.662 115.885 764.932 117.228 771.109 119.147C777.474 120.873 783.276 123.463 788.517 126.917C793.759 130.37 797.97 135.071 801.152 141.019C804.334 146.775 805.925 154.161 805.925 163.179C805.925 172.58 803.024 181.406 797.221 189.656C791.419 197.714 782.621 204.237 770.829 209.226C759.036 214.022 744.249 216.421 726.466 216.421Z" fill="url(#paint3_linear_0_57)"/>
<path d="M868.654 187.641L870.058 111.088L923.124 56.1197H998.091L927.897 131.522L896.17 157.711L868.654 187.641ZM815.587 213.543V0H879.042V213.543H815.587ZM926.493 213.543L884.377 158.862L923.405 109.649L1003.14 213.543H926.493Z" fill="url(#paint4_linear_0_57)"/>
<path d="M1093.1 213.543V185.627L1088.61 178.144V125.19C1088.61 117.516 1086.27 111.664 1081.59 107.635C1077.1 103.606 1069.7 101.591 1059.41 101.591C1052.48 101.591 1045.46 102.742 1038.35 105.045C1031.24 107.155 1025.15 110.129 1020.1 113.966L999.884 71.085C1008.87 65.3291 1019.63 60.9163 1032.17 57.8465C1044.71 54.7767 1056.98 53.2418 1068.95 53.2418C1095.35 53.2418 1115.75 59.2855 1130.16 71.3728C1144.76 83.4601 1152.06 102.646 1152.06 128.932V213.543H1093.1ZM1049.58 216.421C1037.04 216.421 1026.56 214.214 1018.13 209.801C1009.71 205.389 1003.35 199.537 999.042 192.246C994.737 184.763 992.584 176.513 992.584 167.496C992.584 157.327 995.111 148.693 1000.17 141.594C1005.22 134.496 1012.89 129.123 1023.19 125.478C1033.67 121.833 1046.87 120.01 1062.78 120.01H1094.79V151.379H1072.89C1066.15 151.379 1061.19 152.531 1058 154.833C1055.01 156.943 1053.51 160.205 1053.51 164.618C1053.51 168.263 1054.82 171.333 1057.44 173.827C1060.25 176.13 1063.99 177.281 1068.67 177.281C1072.98 177.281 1076.91 176.13 1080.47 173.827C1084.21 171.333 1086.92 167.496 1088.61 162.316L1096.75 181.598C1094.32 193.301 1089.17 202.031 1081.31 207.787C1073.45 213.543 1062.87 216.421 1049.58 216.421Z" fill="url(#paint5_linear_0_57)"/>
<path d="M1169.94 213.543V56.1197H1230.3V103.606L1220.48 90.0794C1225.16 77.8002 1232.64 68.5908 1242.94 62.4512C1253.23 56.3116 1265.59 53.2418 1280 53.2418V110.801C1277.19 110.417 1274.67 110.129 1272.42 109.937C1270.36 109.745 1268.21 109.649 1265.96 109.649C1256.41 109.649 1248.55 112.239 1242.38 117.42C1236.39 122.408 1233.39 131.138 1233.39 143.609V213.543H1169.94Z" fill="url(#paint6_linear_0_57)"/>
</g>
<defs>
<linearGradient id="paint0_linear_0_57" x1="590.895" y1="61.0267" x2="582.324" y2="344.046" gradientUnits="userSpaceOnUse">
<stop stop-color="#E6E6E6"/>
<stop offset="1" stop-color="#F2F2F2"/>
</linearGradient>
<linearGradient id="paint1_linear_0_57" x1="590.895" y1="61.0267" x2="582.324" y2="344.046" gradientUnits="userSpaceOnUse">
<stop stop-color="#E6E6E6"/>
<stop offset="1" stop-color="#F2F2F2"/>
</linearGradient>
<linearGradient id="paint2_linear_0_57" x1="590.895" y1="61.0267" x2="582.324" y2="344.046" gradientUnits="userSpaceOnUse">
<stop stop-color="#E6E6E6"/>
<stop offset="1" stop-color="#F2F2F2"/>
</linearGradient>
<linearGradient id="paint3_linear_0_57" x1="590.895" y1="61.0267" x2="582.324" y2="344.046" gradientUnits="userSpaceOnUse">
<stop stop-color="#E6E6E6"/>
<stop offset="1" stop-color="#F2F2F2"/>
</linearGradient>
<linearGradient id="paint4_linear_0_57" x1="590.895" y1="61.0267" x2="582.324" y2="344.046" gradientUnits="userSpaceOnUse">
<stop stop-color="#E6E6E6"/>
<stop offset="1" stop-color="#F2F2F2"/>
</linearGradient>
<linearGradient id="paint5_linear_0_57" x1="590.895" y1="61.0267" x2="582.324" y2="344.046" gradientUnits="userSpaceOnUse">
<stop stop-color="#E6E6E6"/>
<stop offset="1" stop-color="#F2F2F2"/>
</linearGradient>
<linearGradient id="paint6_linear_0_57" x1="590.895" y1="61.0267" x2="582.324" y2="344.046" gradientUnits="userSpaceOnUse">
<stop stop-color="#E6E6E6"/>
<stop offset="1" stop-color="#F2F2F2"/>
</linearGradient>
</defs>
</svg>
